<?xml version="1.0" standalone="no"?>
<!DOCTYPE svg PUBLIC "-//W3C//DTD SVG 20010904//EN"
 "http://www.w3.org/TR/2001/REC-SVG-20010904/DTD/svg10.dtd">
<svg version="1.0" xmlns="http://www.w3.org/2000/svg"
 width="716.000000pt" height="716.000000pt" viewBox="0 0 716.000000 716.000000"
 preserveAspectRatio="xMidYMid meet">
<metadata>
Created by potrace 1.14, written by Peter Selinger 2001-2017
</metadata>
<g transform="translate(0.000000,716.000000) scale(0.100000,-0.100000)"
fill="#000000" stroke="none">
<path d="M3345 6954 c-316 -31 -537 -75 -798 -160 -730 -238 -1358 -716 -1784
-1359 -289 -436 -459 -892 -540 -1445 -26 -179 -26 -681 0 -860 107 -735 398
-1359 875 -1873 553 -597 1248 -956 2073 -1074 177 -25 691 -25 868 0 828 118
1528 482 2079 1081 474 514 763 1134 869 1866 26 179 26 681 0 860 -115 787
-435 1436 -975 1977 -531 531 -1202 861 -1967 969 -105 14 -604 27 -700 18z"/>
</g>
</svg>
